<svg width="196" height="48" fill="none" xmlns="http://www.w3.org/2000/svg"><g filter="url(#a)"><path d="M14.12 16.2h9.47l-.33 2.3h-9.9l.76-2.3Zm6.4-11.66.7.07-9.62 19.65c0 .12.1.24.32.36.24.1.54.17.9.22.36.05.74.07 1.12.07h.54l-.4 2.09h-7.8l.39-2.09h.18c.53 0 .97-.08 1.33-.25.38-.2.72-.59 1-1.19L20.07 1.44h5.69l3.31 22.36c.07.5.26.81.58.93.3.12.74.18 1.3.18h.17l-.4 2.09H19.85l.4-2.09h.58a18.46 18.46 0 0 0 2.12-.14c.26-.07.4-.15.4-.22L20.53 4.54ZM33.92 27h5.47l2.41-13.68-.32.14.79-4.9h-7.6l-.36 2.06.44.07c.45.05.82.13 1.11.25.29.1.5.23.61.4.15.17.2.4.15.68L33.9 27Zm18-6.3.93-4.86c.17-.74.28-1.38.33-1.9.07-.56.1-1.04.1-1.45a4.1 4.1 0 0 0-1.22-3.13c-.8-.77-1.93-1.15-3.42-1.15-1.27 0-2.41.29-3.42.86-1 .58-1.94 1.4-2.8 2.45a30.15 30.15 0 0 0-2.56 3.7l.6 1.38c.66-1.16 1.3-2.12 1.95-2.88.65-.8 1.29-1.4 1.91-1.8.63-.41 1.24-.62 1.84-.62.6 0 1.02.16 1.26.47.26.31.4.73.4 1.26a16.33 16.33 0 0 1-.36 2.45l-.83 4.32a25.14 25.14 0 0 0-.5 2.88c-.03.34-.04.66-.04.97 0 .84.16 1.54.5 2.09.36.53.85.92 1.48 1.19.62.26 1.34.4 2.16.4a8.1 8.1 0 0 0 2.91-.55c.4-.19.75-.37 1-.54l.44-2.16-.5.18a4.64 4.64 0 0 1-1.59.36c-.36 0-.62-.07-.79-.21-.17-.15-.25-.39-.25-.72a7.7 7.7 0 0 1 .22-1.7c.1-.38.18-.81.25-1.29Zm5.7 2.95c0-.31.03-.63.08-.97a52 52 0 0 1 .47-2.88l1.4-7.74c.08-.31.04-.55-.1-.72-.12-.17-.33-.3-.62-.4-.28-.12-.66-.2-1.11-.25l-.47-.07.36-2.05h8l-2.2 12.13-.22 1.3-.14 1c-.03.27-.04.5-.04.69 0 .33.08.57.25.72.2.14.47.21.83.21a4.64 4.64 0 0 0 1.58-.36c.24-.1.41-.15.5-.18l-.42 2.16a6.24 6.24 0 0 1-2.27.9c-.5.12-1.05.18-1.62.18-.82 0-1.55-.13-2.2-.4a3.8 3.8 0 0 1-1.51-1.22 3.68 3.68 0 0 1-.54-2.05Zm2.5-20.88c0-.84.28-1.5.86-1.98.6-.5 1.39-.75 2.37-.75.96 0 1.72.22 2.27.68.55.46.83 1.1.83 1.9 0 .87-.3 1.56-.9 2.06-.58.5-1.36.76-2.34.76-.96 0-1.72-.24-2.27-.72a2.44 2.44 0 0 1-.83-1.95Zm15.34 20.88 3.49-19.73h-1.55c-.91 0-1.65.04-2.23.11-.58.07-1.02.23-1.33.47-.3.24-.5.58-.65 1l-1.04 3.75H69.5l1.37-7.81H93.7l-1.4 7.81h-2.6l.33-3.74c.05-.46-.06-.8-.33-1.01-.24-.24-.64-.4-1.22-.47-.55-.07-1.3-.1-2.23-.1H84.7l-3.5 19.69c-.09.52.08.87.51 1.04.43.17 1 .25 1.7.25h.53L83.58 27H71.85l.4-2.09h.53c.72 0 1.32-.08 1.8-.25.48-.17.77-.5.87-1ZM94.09 27h5.44L104.2.47h-7.92l-.36 2.01.4.08c.45.1.82.19 1.1.28.3.1.5.23.62.4.14.17.18.4.1.68L94.1 27Zm18-6.3.94-4.86c.16-.74.27-1.38.32-1.9.07-.56.1-1.04.1-1.45a4.1 4.1 0 0 0-1.22-3.13 4.8 4.8 0 0 0-3.42-1.15c-.96 0-1.83.17-2.62.5-.8.34-1.55.82-2.27 1.44-.7.6-1.37 1.33-2.02 2.2-.62.86-1.25 1.82-1.87 2.88l.61 1.37a20.64 20.64 0 0 1 1.91-2.88c.65-.8 1.28-1.4 1.9-1.8.66-.41 1.28-.62 1.88-.62.6 0 1.02.16 1.26.47.26.31.4.73.4 1.26a16.33 16.33 0 0 1-.36 2.45l-.83 4.32a25.14 25.14 0 0 0-.5 2.88c-.03.34-.04.66-.04.97 0 .84.17 1.54.5 2.09.36.53.85.92 1.48 1.19.62.26 1.34.4 2.16.4a8.1 8.1 0 0 0 2.91-.55c.41-.19.75-.37 1.01-.54l.4-2.16-.47.18a4.64 4.64 0 0 1-1.58.36c-.36 0-.64-.07-.83-.21-.17-.15-.25-.39-.25-.72 0-.17.02-.4.07-.69a51.5 51.5 0 0 1 .43-2.3Zm5.72 2.95c0-.31.02-.63.07-.97a52 52 0 0 1 .47-2.88l1.4-7.74c.07-.31.04-.55-.1-.72-.13-.17-.33-.3-.62-.4-.29-.12-.66-.2-1.11-.25l-.47-.07.36-2.05h7.99l-2.2 12.13-.21 1.3-.15 1-.03.69c0 .33.08.57.25.72.2.14.47.21.83.21a4.64 4.64 0 0 0 1.58-.36c.24-.1.4-.15.5-.18l-.43 2.16a6.24 6.24 0 0 1-2.27.9c-.5.12-1.04.18-1.61.18-.82 0-1.55-.13-2.2-.4a3.8 3.8 0 0 1-1.51-1.22 3.68 3.68 0 0 1-.54-2.05Zm2.48-20.88c0-.84.29-1.5.86-1.98.6-.5 1.4-.75 2.38-.75.96 0 1.72.22 2.27.68.55.46.83 1.1.83 1.9 0 .87-.3 1.56-.9 2.06-.58.5-1.36.76-2.34.76-.96 0-1.72-.24-2.27-.72a2.44 2.44 0 0 1-.83-1.95ZM128.8 27h5.48l2.4-13.68-.32.14.8-4.9h-7.6l-.36 2.06.43.07c.46.05.83.13 1.12.25.29.1.49.23.61.4.14.17.2.4.14.68L128.8 27Zm18-6.3.94-4.86c.17-.74.28-1.38.32-1.9.08-.56.11-1.04.11-1.45a4.1 4.1 0 0 0-1.22-3.13c-.8-.77-1.93-1.15-3.42-1.15-1.27 0-2.41.29-3.42.86-1.01.58-1.95 1.4-2.81 2.45a30.15 30.15 0 0 0-2.56 3.7l.62 1.38c.64-1.16 1.3-2.12 1.94-2.88.65-.8 1.28-1.4 1.9-1.8.63-.41 1.24-.62 1.84-.62.6 0 1.02.16 1.26.47.27.31.4.73.4 1.26a16.33 16.33 0 0 1-.36 2.45l-.83 4.32a25.14 25.14 0 0 0-.5 2.88c-.03.34-.04.66-.04.97 0 .84.17 1.54.5 2.09.37.53.86.92 1.48 1.19.63.26 1.35.4 2.16.4a8.1 8.1 0 0 0 2.92-.55c.4-.19.74-.37 1-.54l.44-2.16-.5.18a4.64 4.64 0 0 1-1.59.36c-.36 0-.62-.07-.8-.21-.16-.15-.24-.39-.24-.72a7.7 7.7 0 0 1 .21-1.7c.1-.38.18-.81.25-1.29Zm16.55 6.23 2.85-16.06.4.18 1.97-2.66h3.5l-3.32 18.68c-.33 1.85-.97 3.4-1.9 4.65a8.4 8.4 0 0 1-3.57 2.8c-1.46.63-3.16.94-5.08.94-1.44 0-2.72-.14-3.85-.43a9.94 9.94 0 0 1-2.84-1.19 7.7 7.7 0 0 1-1.84-1.62l.61-3.28h4.4l-.83 4.4a1.2 1.2 0 0 1-.8-.33c-.19-.17-.32-.4-.39-.72-.07-.31-.1-.63-.07-.97.05-.34.13-.66.25-.97.29.53.65 1 1.08 1.4.46.43 1 .76 1.66.97.67.24 1.45.36 2.34.36a4.49 4.49 0 0 0 4.32-2.63c.48-.9.85-2.08 1.11-3.52Zm5.8-13.47-2.2 1.05a4.96 4.96 0 0 0-.61-2.09 3.64 3.64 0 0 0-3.2-1.84c-.72 0-1.4.2-2.02.58-.6.38-1.14.91-1.62 1.58-.48.68-.89 1.43-1.22 2.27a14.88 14.88 0 0 0-1 5.33c-.01.94.08 1.7.28 2.3.19.6.48 1.05.86 1.34.38.28.86.43 1.44.43.65 0 1.27-.2 1.87-.61.6-.44 1.2-1.07 1.8-1.91a25.4 25.4 0 0 0 1.91-3.06l1.04 1a34.28 34.28 0 0 1-2.44 4 9.43 9.43 0 0 1-2.63 2.56c-.94.57-2.03.86-3.28.86a6.72 6.72 0 0 1-3.45-.86 5.7 5.7 0 0 1-2.27-2.49 9.23 9.23 0 0 1-.76-3.92 12.47 12.47 0 0 1 1.9-6.8 10.4 10.4 0 0 1 5.36-4.32c1.14-.44 2.37-.65 3.69-.65 1 0 1.88.14 2.62.43.75.29 1.38.68 1.91 1.19.53.48.95 1.03 1.26 1.65.34.63.59 1.29.76 1.98Zm11.78 13.94a14.56 14.56 0 0 1-6.27-1.37c-.76-.41-1.4-.84-1.9-1.3l.68-3.63h4.1l-.82 4.32a1.62 1.62 0 0 1-.76-.62 1.76 1.76 0 0 1-.25-.9c0-.33.07-.66.21-.97.32.43.7.82 1.16 1.15a6.56 6.56 0 0 0 3.81 1.05c.7 0 1.29-.11 1.77-.33.48-.21.84-.51 1.08-.9.26-.38.4-.82.4-1.33 0-.36-.12-.67-.33-.93-.2-.3-.47-.54-.83-.76a29.9 29.9 0 0 0-2.7-1.26 20.4 20.4 0 0 1-2.41-1.19 6.56 6.56 0 0 1-1.98-1.73c-.53-.7-.8-1.58-.8-2.66 0-1.25.33-2.3.98-3.13a5.82 5.82 0 0 1 2.73-1.95 11.2 11.2 0 0 1 4.07-.68c1.08 0 2.07.1 2.95.32.9.2 1.65.46 2.27.8.65.3 1.14.67 1.48 1.08l-.58 3.34h-4l.62-3.52c.19.02.38.15.57.4.2.23.33.52.4.86.1.3.04.6-.18.9a2.4 2.4 0 0 0-.76-1.05c-.33-.29-.74-.5-1.22-.65a5.5 5.5 0 0 0-1.58-.21c-.99 0-1.73.2-2.24.61-.5.38-.75.9-.75 1.55 0 .5.18.92.54 1.26.36.33.84.65 1.44.93l1.9.87c.85.33 1.66.73 2.45 1.19.8.43 1.46 1 1.98 1.69.53.67.8 1.52.8 2.55a5.67 5.67 0 0 1-3.75 5.48c-1.17.48-2.6.72-4.28.72Z" fill="#F5F4F4"/></g><defs><filter id="a" x=".27" y=".04" width="195.29" height="47.42" filterUnits="userSpaceOnUse" color-interpolation-filters="sRGB"><feFlood flood-opacity="0" result="BackgroundImageFix"/><feColorMatrix in="SourceAlpha" values="0 0 0 0 0 0 0 0 0 0 0 0 0 0 0 0 0 0 127 0" result="hardAlpha"/><feOffset dy="6"/><feGaussianBlur stdDeviation="3"/><feComposite in2="hardAlpha" operator="out"/><feColorMatrix values="0 0 0 0 0 0 0 0 0 0 0 0 0 0 0 0 0 0 0.25 0"/><feBlend in2="BackgroundImageFix" result="effect1_dropShadow_106_477"/><feBlend in="SourceGraphic" in2="effect1_dropShadow_106_477" result="shape"/></filter></defs></svg>